<svg width="179" height="183" viewBox="0 0 179 183" fill="none" xmlns="http://www.w3.org/2000/svg">
<path d="M81.4183 5.49065C84.7112 -1.2285 94.2887 -1.22849 97.5816 5.49067L177.978 169.539C180.909 175.519 176.555 182.5 169.896 182.5H9.10351C2.44438 182.5 -1.90863 175.519 1.02185 169.539L81.4183 5.49065Z" fill="black"/>
<path d="M82.8636 130.364V129.955C82.909 125.614 83.3636 122.159 84.2272 119.591C85.0909 117.023 86.3181 114.943 87.909 113.352C89.4999 111.761 91.409 110.295 93.6363 108.955C94.9772 108.136 96.1818 107.17 97.2499 106.057C98.3181 104.92 99.159 103.614 99.7727 102.136C100.409 100.659 100.727 99.0228 100.727 97.2273C100.727 95 100.204 93.0682 99.159 91.4319C98.1136 89.7955 96.7159 88.5341 94.9659 87.6478C93.2159 86.7614 91.2727 86.3182 89.1363 86.3182C87.2727 86.3182 85.4772 86.7046 83.7499 87.4773C82.0227 88.25 80.5795 89.466 79.4204 91.125C78.2613 92.7841 77.5909 94.9546 77.409 97.6364H68.8181C68.9999 93.7728 69.9999 90.466 71.8181 87.716C73.659 84.9659 76.0795 82.8637 79.0795 81.4091C82.1022 79.9546 85.4545 79.2273 89.1363 79.2273C93.1363 79.2273 96.6136 80.0228 99.5681 81.6137C102.545 83.2046 104.841 85.3864 106.454 88.1591C108.091 90.9319 108.909 94.0909 108.909 97.6364C108.909 100.136 108.523 102.398 107.75 104.421C107 106.443 105.909 108.25 104.477 109.841C103.068 111.432 101.364 112.841 99.3636 114.068C97.3636 115.318 95.7613 116.636 94.5568 118.023C93.3522 119.386 92.4772 121.011 91.9318 122.898C91.3863 124.784 91.0909 127.136 91.0454 129.955V130.364H82.8636ZM87.2272 150.546C85.5454 150.546 84.1022 149.943 82.8977 148.739C81.6931 147.534 81.0909 146.091 81.0909 144.409C81.0909 142.727 81.6931 141.284 82.8977 140.08C84.1022 138.875 85.5454 138.273 87.2272 138.273C88.909 138.273 90.3522 138.875 91.5568 140.08C92.7613 141.284 93.3636 142.727 93.3636 144.409C93.3636 145.523 93.0795 146.546 92.5113 147.477C91.9659 148.409 91.2272 149.159 90.2954 149.727C89.3863 150.273 88.3636 150.546 87.2272 150.546Z" fill="white"/>
</svg>
